<mxfile host="app.diagrams.net" agent="Mozilla/5.0 (Windows NT 10.0; Win64; x64) AppleWebKit/537.36 (KHTML, like Gecko) Chrome/136.0.0.0 Safari/537.36" version="27.0.6">
  <diagram name="Page-1" id="mcOSNuTvkaqXmnxg192A">
    <mxGraphModel dx="786" dy="459" grid="1" gridSize="10" guides="1" tooltips="1" connect="1" arrows="1" fold="1" page="1" pageScale="1" pageWidth="827" pageHeight="1169" math="0" shadow="0">
      <root>
        <mxCell id="0" />
        <mxCell id="1" parent="0" />
        <mxCell id="XyDEv_NMKFqQQ-GJHahw-1" value="" style="whiteSpace=wrap;html=1;aspect=fixed;" vertex="1" parent="1">
          <mxGeometry x="200" y="70" width="430" height="430" as="geometry" />
        </mxCell>
        <mxCell id="XyDEv_NMKFqQQ-GJHahw-2" value="Système de réservation" style="text;html=1;align=center;verticalAlign=middle;resizable=0;points=[];autosize=1;strokeColor=none;fillColor=none;" vertex="1" parent="1">
          <mxGeometry x="200" y="70" width="150" height="30" as="geometry" />
        </mxCell>
        <mxCell id="XyDEv_NMKFqQQ-GJHahw-3" value="Serveur" style="shape=umlActor;verticalLabelPosition=bottom;verticalAlign=top;html=1;" vertex="1" parent="1">
          <mxGeometry x="120" y="205" width="30" height="60" as="geometry" />
        </mxCell>
        <mxCell id="XyDEv_NMKFqQQ-GJHahw-4" value="Nouvelle réservation" style="ellipse;whiteSpace=wrap;html=1;" vertex="1" parent="1">
          <mxGeometry x="250" y="130" width="100" height="50" as="geometry" />
        </mxCell>
        <mxCell id="XyDEv_NMKFqQQ-GJHahw-7" value="annuler réservation" style="ellipse;whiteSpace=wrap;html=1;" vertex="1" parent="1">
          <mxGeometry x="240" y="210" width="110" height="50" as="geometry" />
        </mxCell>
        <mxCell id="XyDEv_NMKFqQQ-GJHahw-8" value="consulter les réservation" style="ellipse;whiteSpace=wrap;html=1;" vertex="1" parent="1">
          <mxGeometry x="250" y="280" width="110" height="60" as="geometry" />
        </mxCell>
        <mxCell id="XyDEv_NMKFqQQ-GJHahw-9" value="Visualiser disponibiliter tables" style="ellipse;whiteSpace=wrap;html=1;" vertex="1" parent="1">
          <mxGeometry x="240" y="380" width="110" height="50" as="geometry" />
        </mxCell>
        <mxCell id="XyDEv_NMKFqQQ-GJHahw-17" style="rounded=0;orthogonalLoop=1;jettySize=auto;html=1;endArrow=block;endFill=0;" edge="1" parent="1" source="XyDEv_NMKFqQQ-GJHahw-14" target="XyDEv_NMKFqQQ-GJHahw-3">
          <mxGeometry relative="1" as="geometry" />
        </mxCell>
        <mxCell id="XyDEv_NMKFqQQ-GJHahw-14" value="Réceptionniste" style="shape=umlActor;verticalLabelPosition=bottom;verticalAlign=top;html=1;" vertex="1" parent="1">
          <mxGeometry x="30" y="330" width="30" height="60" as="geometry" />
        </mxCell>
        <mxCell id="XyDEv_NMKFqQQ-GJHahw-18" value="" style="endArrow=none;html=1;rounded=0;entryX=0;entryY=1;entryDx=0;entryDy=0;exitX=0.489;exitY=0.661;exitDx=0;exitDy=0;exitPerimeter=0;" edge="1" parent="1" source="XyDEv_NMKFqQQ-GJHahw-3" target="XyDEv_NMKFqQQ-GJHahw-4">
          <mxGeometry width="50" height="50" relative="1" as="geometry">
            <mxPoint x="270" y="310" as="sourcePoint" />
            <mxPoint x="320" y="260" as="targetPoint" />
          </mxGeometry>
        </mxCell>
        <mxCell id="XyDEv_NMKFqQQ-GJHahw-19" value="" style="endArrow=none;html=1;rounded=0;entryX=0.03;entryY=0.64;entryDx=0;entryDy=0;entryPerimeter=0;exitX=0.511;exitY=0.717;exitDx=0;exitDy=0;exitPerimeter=0;" edge="1" parent="1" source="XyDEv_NMKFqQQ-GJHahw-3" target="XyDEv_NMKFqQQ-GJHahw-7">
          <mxGeometry width="50" height="50" relative="1" as="geometry">
            <mxPoint x="270" y="310" as="sourcePoint" />
            <mxPoint x="320" y="260" as="targetPoint" />
          </mxGeometry>
        </mxCell>
        <mxCell id="XyDEv_NMKFqQQ-GJHahw-20" value="" style="endArrow=none;html=1;rounded=0;entryX=0.489;entryY=0.772;entryDx=0;entryDy=0;entryPerimeter=0;exitX=0;exitY=0.5;exitDx=0;exitDy=0;" edge="1" parent="1" source="XyDEv_NMKFqQQ-GJHahw-8" target="XyDEv_NMKFqQQ-GJHahw-3">
          <mxGeometry width="50" height="50" relative="1" as="geometry">
            <mxPoint x="270" y="310" as="sourcePoint" />
            <mxPoint x="320" y="260" as="targetPoint" />
          </mxGeometry>
        </mxCell>
        <mxCell id="XyDEv_NMKFqQQ-GJHahw-21" value="" style="endArrow=none;html=1;rounded=0;exitX=0.5;exitY=0.5;exitDx=0;exitDy=0;exitPerimeter=0;" edge="1" parent="1" source="XyDEv_NMKFqQQ-GJHahw-14" target="XyDEv_NMKFqQQ-GJHahw-9">
          <mxGeometry width="50" height="50" relative="1" as="geometry">
            <mxPoint x="270" y="310" as="sourcePoint" />
            <mxPoint x="320" y="260" as="targetPoint" />
          </mxGeometry>
        </mxCell>
      </root>
    </mxGraphModel>
  </diagram>
</mxfile>
